PathFileType  4	(X/Y/Z) /Users/kristensteudel/Documents/NMBL_Research/BertecForceProcessing/anc_files/
DataRate	CameraRate	NumFrames	NumMarkers	Units	OrigDataRate	OrigDataStartFrame	OrigNumFrames
  200.0		  200.0		   8		     46		 mm	  200.0	      293	   1171
Frame#	Time	r_knee			r_shank_antsup			r_ankle			r_calc			r_5meta			r_toe			L_knee			L_shank_antsup			L_ankle			L_calc			L_5meta			L_toe			r_sh2			r_sh3			r_sh4			L_sh2			L_sh3			r_thigh1			r_thigh2			r_thigh3			r_thigh4			r_thigh5			L_thigh1			L_thigh2			L_thigh3			L_thigh4			r.ASIS			r.PSIS			L.ASIS			L.PSIS			C7			R_Shoulder			L_Shoulder			Sternum			R_humerus			R_elbow_med			R_elbow_lat			R_forearm			R_wrist_radius			R_wrist_ulna			L_humerus			L_elbow_med			L_elbow_lat			L_forearm			L_wrist_radius			L_wrist_ulna			
		X1	Y1	Z1	X2	Y2	Z2	X3	Y3	Z3	X4	Y4	Z4	X5	Y5	Z5	X6	Y6	Z6	X7	Y7	Z7	X8	Y8	Z8	X9	Y9	Z9	X10	Y10	Z10	X11	Y11	Z11	X12	Y12	Z12	X13	Y13	Z13	X14	Y14	Z14	X15	Y15	Z15	X16	Y16	Z16	X17	Y17	Z17	X18	Y18	Z18	X19	Y19	Z19	X20	Y20	Z20	X21	Y21	Z21	X22	Y22	Z22	X23	Y23	Z23	X24	Y24	Z24	X25	Y25	Z25	X26	Y26	Z26	X27	Y27	Z27	X28	Y28	Z28	X29	Y29	Z29	X30	Y30	Z30	X31	Y31	Z31	X32	Y32	Z32	X33	Y33	Z33	X34	Y34	Z34	X35	Y35	Z35	X36	Y36	Z36	X37	Y37	Z37	X38	Y38	Z38	X39	Y39	Z39	X40	Y40	Z40	X41	Y41	Z41	X42	Y42	Z42	X43	Y43	Z43	X44	Y44	Z44	X45	Y45	Z45	X46	Y46	Z46	

293	1.46000	779.809	546.712	-127.967	665.796	544.532	-135.737	407.654	733.234	-182.662	435.135	805.864	-248.455	269.742	698.246	-159.730	264.817	644.492	-219.036	909.386	556.019	-453.075	968.127	444.602	-462.426	1031.422	132.324	-405.405	994.671	122.540	-337.810	1183.341	53.830	-438.337	1229.422	101.294	-397.502	561.750	599.891	-155.588	690.672	608.076	-105.321	598.959	669.966	-134.053	881.544	428.107	-441.873	923.740	314.859	-422.941	888.286	752.012	-121.038	874.695	637.331	-132.133	831.569	609.426	-109.530	780.608	755.565	-82.689	771.918	640.763	-107.171	898.947	788.388	-497.232	950.683	662.473	-462.478	788.496	751.245	-479.130	844.785	629.666	-445.155	875.208	1045.972	-168.293	664.551	1092.386	-214.742	834.990	1045.458	-423.561	647.082	1089.971	-319.214	796.721	1578.212	-326.746	869.463	1549.635	-134.607	840.748	1525.265	-514.437	933.237	1458.016	-336.846	789.138	1352.995	-23.545	648.494	1267.920	-35.417	681.060	1303.085	42.811	797.697	1153.889	32.771	856.768	1054.364	20.764	819.302	1036.673	48.473	709.077	1348.204	-646.426	559.019	1303.157	-630.262	613.313	1333.012	-700.236	699.683	1191.986	-676.641	774.566	1121.577	-605.854	723.636	1083.858	-647.224
294	1.46500	799.107	545.274	-128.629	686.742	544.549	-136.843	431.639	738.074	-181.427	459.146	811.472	-246.970	294.366	703.512	-157.266	288.585	650.619	-217.633	901.139	552.454	-454.336	954.441	437.442	-462.544	1002.568	123.688	-404.183	963.886	115.103	-337.062	1151.297	37.980	-433.456	1198.564	83.120	-391.661	583.182	601.706	-155.867	712.494	607.809	-105.675	621.700	670.763	-135.546	866.792	425.324	-443.809	904.486	309.278	-423.597	898.453	754.298	-122.314	889.966	639.141	-133.867	848.611	609.435	-110.170	791.340	753.292	-82.714	787.828	638.003	-107.574	894.349	783.571	-501.221	942.316	656.875	-463.638	782.913	750.450	-477.011	834.944	626.668	-446.025	874.610	1045.109	-169.094	661.516	1087.484	-215.003	833.082	1043.879	-424.719	645.552	1087.885	-319.127	795.508	1574.076	-328.537	866.660	1545.820	-133.604	841.456	1521.234	-516.695	933.418	1455.175	-335.510	781.247	1350.055	-25.624	639.465	1268.275	-38.701	670.398	1303.115	40.019	776.713	1146.181	37.147	828.199	1042.076	29.734	789.130	1027.430	56.940	720.412	1334.757	-649.770	570.658	1283.008	-636.707	625.536	1314.143	-705.376	716.754	1177.107	-678.324	792.822	1110.582	-606.442	743.741	1070.658	-647.615
295	1.47000	818.799	544.037	-129.923	708.669	544.669	-137.299	455.781	741.421	-180.079	482.529	815.648	-244.025	319.064	706.228	-155.054	312.835	654.303	-215.372	893.117	547.707	-455.592	940.028	429.964	-462.673	971.840	114.956	-401.793	931.662	109.514	-335.539	1109.653	39.942	-429.682	1167.111	66.822	-383.479	605.144	602.821	-155.140	734.725	607.788	-104.919	644.170	671.541	-135.554	851.753	422.054	-445.331	882.933	305.058	-422.921	908.915	757.019	-124.052	905.977	641.504	-135.324	866.506	609.848	-110.782	802.946	751.059	-82.667	804.507	635.565	-106.892	890.443	777.708	-504.535	934.782	651.053	-463.624	777.527	748.872	-477.139	825.968	623.198	-447.133	873.856	1043.878	-169.950	660.463	1083.941	-215.221	831.436	1041.987	-426.135	643.986	1085.237	-318.766	794.379	1570.414	-330.422	863.448	1541.894	-132.731	841.842	1516.890	-518.899	934.229	1452.330	-334.347	773.690	1346.786	-28.507	630.281	1269.081	-41.475	659.511	1303.867	37.564	755.149	1140.067	41.242	799.097	1032.384	37.815	758.167	1021.790	64.709	731.850	1321.432	-652.642	583.778	1262.481	-641.721	639.363	1295.327	-709.368	734.467	1162.694	-678.737	813.310	1100.853	-605.926	765.147	1058.150	-646.979
296	1.47500	839.498	543.593	-130.740	730.434	544.498	-137.655	479.725	743.068	-178.746	505.211	818.503	-241.934	343.813	706.029	-154.632	337.335	655.270	-213.678	884.555	542.274	-456.734	924.279	422.592	-463.077	938.777	110.341	-398.271	896.947	105.900	-334.241	1074.464	41.162	-425.665	1130.473	54.311	-372.702	627.293	603.359	-154.966	756.735	606.922	-104.193	666.956	671.995	-135.429	836.375	417.972	-446.292	863.278	299.514	-424.000	919.858	760.046	-125.919	922.482	644.623	-136.918	885.139	611.069	-111.086	814.994	749.359	-81.751	822.138	633.423	-106.245	886.884	772.503	-504.938	927.139	644.768	-462.794	772.786	747.153	-478.775	817.159	619.286	-448.730	872.897	1042.098	-170.873	657.811	1079.489	-215.300	829.418	1039.928	-427.742	642.756	1082.052	-318.118	793.483	1567.443	-332.019	860.628	1537.974	-132.111	842.142	1511.879	-520.886	933.894	1448.718	-332.793	766.481	1343.822	-30.776	620.544	1270.139	-43.959	648.329	1305.171	34.933	733.532	1135.921	44.853	769.846	1025.318	44.806	727.684	1017.989	71.523	742.794	1308.131	-653.909	598.267	1242.026	-646.132	655.221	1276.960	-712.310	753.498	1149.270	-677.835	832.815	1091.595	-604.588	787.503	1047.149	-645.557
297	1.48000	861.159	543.526	-130.218	752.328	543.942	-137.867	503.273	742.870	-178.165	526.567	820.094	-239.753	368.231	703.724	-152.143	361.903	653.523	-212.590	874.870	536.181	-457.906	908.195	414.812	-463.112	903.141	107.072	-391.561	855.394	97.898	-331.232	1037.119	40.663	-425.642	1091.325	53.072	-369.743	649.828	603.473	-155.023	778.871	605.826	-103.917	689.291	671.773	-134.010	819.451	415.122	-449.723	838.923	295.979	-423.514	930.606	763.357	-129.279	939.453	648.647	-138.376	904.534	613.213	-111.458	827.500	747.569	-81.905	840.417	631.912	-105.630	882.899	767.575	-502.898	919.309	638.428	-461.079	767.626	744.086	-479.663	808.327	615.214	-450.918	872.115	1039.837	-172.020	659.848	1077.039	-215.358	827.146	1037.807	-429.519	641.340	1078.884	-317.907	793.336	1564.569	-332.674	857.533	1534.181	-131.762	842.466	1507.012	-522.732	933.433	1444.961	-331.252	758.796	1342.019	-31.728	610.379	1272.237	-45.909	637.109	1307.349	32.589	711.994	1133.545	47.940	740.896	1020.151	50.848	697.935	1017.079	77.337	753.934	1295.111	-653.041	612.707	1222.372	-649.173	673.591	1258.983	-712.711	773.703	1137.252	-675.334	853.832	1085.652	-600.613	811.231	1038.016	-642.634
298	1.48500	883.429	544.603	-131.999	775.066	543.258	-138.856	525.363	741.572	-176.166	546.577	820.129	-237.378	392.422	698.740	-149.915	386.325	649.154	-211.719	864.533	529.566	-457.736	893.458	405.566	-462.924	860.380	102.755	-381.573	812.773	86.128	-321.213	996.657	40.825	-423.951	1049.174	51.898	-367.393	672.227	602.766	-155.275	801.776	605.097	-104.647	710.753	670.827	-132.486	805.136	411.929	-450.807	814.745	292.806	-424.427	941.461	767.568	-131.405	956.692	653.704	-140.130	924.553	616.431	-112.045	840.348	746.189	-82.218	859.322	631.785	-104.845	878.400	762.765	-499.986	911.469	631.716	-461.358	761.942	740.991	-482.270	799.905	611.142	-452.129	871.051	1036.979	-173.308	658.394	1072.947	-215.569	824.730	1035.692	-431.544	639.551	1075.735	-317.806	792.621	1562.065	-334.278	854.636	1530.437	-131.543	843.003	1502.228	-524.298	932.878	1440.978	-329.916	749.987	1341.882	-31.726	599.661	1275.092	-47.904	625.912	1310.524	30.287	690.725	1133.230	50.529	712.150	1018.533	54.914	669.291	1018.591	81.997	766.315	1283.810	-650.748	627.294	1204.827	-650.365	691.202	1242.946	-710.967	794.397	1126.710	-671.407	875.198	1082.198	-596.251	836.715	1031.366	-637.599
299	1.49000	906.509	547.471	-133.469	798.966	543.022	-140.909	546.472	738.240	-175.104	564.684	818.822	-235.333	415.983	690.962	-148.032	410.387	642.253	-210.679	854.060	523.092	-456.594	880.342	397.601	-457.880	819.201	98.937	-371.387	772.739	73.973	-314.299	957.645	41.137	-420.761	1009.991	50.969	-363.508	694.907	600.944	-156.957	825.016	604.928	-105.967	732.029	669.291	-130.830	791.476	410.941	-451.446	789.621	292.661	-423.803	952.342	772.744	-132.567	974.141	659.967	-142.199	944.781	620.893	-112.953	853.475	745.847	-82.290	878.700	632.432	-104.978	873.114	757.761	-496.787	904.136	625.260	-462.149	756.322	737.282	-484.945	792.211	607.137	-452.055	870.066	1033.770	-175.111	657.081	1069.154	-216.231	822.323	1033.877	-433.920	637.565	1072.504	-318.025	792.481	1559.317	-335.107	851.305	1527.068	-131.533	844.357	1497.920	-525.874	933.792	1437.400	-328.495	740.300	1342.954	-31.342	588.834	1278.755	-49.600	614.896	1314.776	28.251	670.013	1135.001	52.337	684.614	1018.726	58.715	641.608	1021.815	85.824	778.542	1274.735	-646.966	642.489	1189.680	-651.228	705.046	1230.417	-709.609	815.175	1117.895	-666.280	896.570	1081.617	-591.002	862.176	1027.183	-631.654
300	1.49500	929.508	551.870	-135.766	823.217	543.567	-143.271	566.243	733.316	-173.477	580.366	815.913	-232.781	438.540	680.528	-146.165	433.986	632.905	-209.213	844.355	516.963	-453.955	865.610	391.618	-450.046	782.684	98.554	-367.164	733.054	75.572	-311.294	918.088	41.357	-418.748	970.543	50.881	-360.761	717.266	598.723	-157.965	847.603	606.088	-107.374	752.260	667.716	-131.089	776.990	410.499	-452.042	765.841	292.748	-418.482	963.226	778.629	-135.547	991.807	667.542	-144.363	965.211	627.087	-114.681	866.796	746.299	-82.566	898.710	633.978	-105.745	868.360	753.239	-492.584	895.494	619.207	-459.138	750.606	734.112	-485.221	783.384	602.888	-452.111	868.954	1030.173	-176.967	655.789	1065.872	-217.370	819.611	1032.063	-436.727	635.363	1069.749	-318.993	791.295	1556.494	-336.659	847.867	1523.855	-131.490	846.657	1493.781	-527.100	932.590	1433.552	-327.202	730.298	1344.725	-30.992	577.350	1283.867	-51.174	603.938	1320.017	26.254	650.051	1138.413	53.488	659.384	1021.624	62.085	615.469	1027.068	88.671	789.742	1267.991	-643.193	655.902	1176.477	-650.523	716.875	1219.817	-707.839	836.095	1113.138	-659.835	916.776	1084.281	-584.901	887.654	1026.320	-624.880
